D:\school\WTK\thesis\model\3dpredictsim\Results\batch_windlass\Pog_s1_tmt_aCst_d00_k800_WL10_ig24_pas_GRF.mot
nRows=15
nColumns=19

name D:\school\WTK\thesis\model\3dpredictsim\Results\batch_windlass\Pog_s1_tmt_aCst_d00_k800_WL10_ig24_pas_GRF.mot
datacolumns 19
datarows 15
range 0.5387297477 0.6895740770
endheader
time 	ground_force_vx	ground_force_vy	ground_force_vz	ground_force_px	ground_force_py	ground_force_pz	1_ground_force_vx	1_ground_force_vy	1_ground_force_vz	1_ground_force_px	1_ground_force_py	1_ground_force_pz	ground_torque_x	ground_torque_y	ground_torque_z	1_ground_torque_x	1_ground_torque_y	1_ground_torque_z
        0.5387297477	      100.5134860783	      478.4549403346	        0.4176863795	        0.3419167621	        0.0000000000	        0.0349745314	      -75.0936319385	       55.5160793245	      -21.1861640647	        0.8079510754	        0.0000000000	       -0.0417329329	        0.0000000000	        0.0000000000	        0.0000000000	        0.0000000000	        0.0000000000	        0.0000000000	
        0.5495043426	       83.1492932207	      389.6643586169	        4.1825040377	        0.3465018177	        0.0000000000	        0.0333112550	     -116.4978777631	      108.5131961618	      -44.0813696519	        0.8187707774	        0.0000000000	       -0.0393488040	        0.0000000000	        0.0000000000	        0.0000000000	        0.0000000000	        0.0000000000	        0.0000000000	
        0.5602789376	       51.8075665747	      289.5734498443	       13.8916821322	        0.3539781854	        0.0000000000	        0.0301506504	     -109.1575874341	      222.0730562965	      -66.5938840539	        0.8299245062	        0.0000000000	       -0.0392149982	        0.0000000000	        0.0000000000	        0.0000000000	        0.0000000000	        0.0000000000	        0.0000000000	
        0.5710535325	       21.5739436953	      189.7688628269	       13.7805630356	        0.3673975189	        0.0000000000	        0.0232344993	      -57.5645065018	      452.8336106515	      -12.9360845650	        0.8411359807	        0.0000000000	       -0.0402640866	        0.0000000000	        0.0000000000	        0.0000000000	        0.0000000000	        0.0000000000	        0.0000000000	
        0.5818281275	        4.0359971281	      144.4917692007	       11.3399735877	        0.3740286192	        0.0000000000	        0.0190697218	      -81.7005203268	      684.3111672124	        8.2408515188	        0.8510010816	        0.0000000000	       -0.0412362762	        0.0000000000	        0.0000000000	        0.0000000000	        0.0000000000	        0.0000000000	        0.0000000000	
        0.5926027224	       -1.6130087797	      109.7393754680	       10.4769907565	        0.3742489878	        0.0000000000	        0.0190756324	     -114.5067979046	      872.0850791092	       13.5985840498	        0.8610166778	        0.0000000000	       -0.0408137731	        0.0000000000	        0.0000000000	        0.0000000000	        0.0000000000	        0.0000000000	        0.0000000000	
        0.6033773174	      -11.4764618052	       66.7250301933	        9.2997614324	        0.3739359461	        0.0000000000	        0.0191691075	     -128.1221106257	      946.9390793847	       14.2469503462	        0.8700067348	        0.0000000000	       -0.0400243270	        0.0000000000	        0.0000000000	        0.0000000000	        0.0000000000	        0.0000000000	        0.0000000000	
        0.6141519124	       -8.5803752816	       18.6186139452	        3.4855078532	        0.3738201744	        0.0000000000	        0.0190390802	     -122.2822762663	      923.8688303573	        9.8255507618	        0.8744590294	        0.0000000000	       -0.0394782160	        0.0000000000	        0.0000000000	        0.0000000000	        0.0000000000	        0.0000000000	        0.0000000000	
        0.6249265073	        0.1458747373	       -0.1499320421	       -0.0167173646	        0.0000000000	        0.0000000000	        0.0000000000	     -105.9156835736	      868.5629166698	        8.0239144337	        0.8777637424	        0.0000000000	       -0.0390519850	        0.0000000000	        0.0000000000	        0.0000000000	        0.0000000000	        0.0000000000	        0.0000000000	
        0.6357011023	        0.0004461410	       -0.0003831519	       -0.0000068364	        0.0000000000	        0.0000000000	        0.0000000000	      -91.4755483443	      813.7929076949	        9.5054644341	        0.8809628155	        0.0000000000	       -0.0387062212	        0.0000000000	        0.0000000000	        0.0000000000	        0.0000000000	        0.0000000000	        0.0000000000	
        0.6464756972	        0.0000520993	       -0.0000381645	        0.0000013662	        0.0000000000	        0.0000000000	        0.0000000000	      -78.4725292961	      768.9145082914	       11.4255719356	        0.8841408260	        0.0000000000	       -0.0384768816	        0.0000000000	        0.0000000000	        0.0000000000	        0.0000000000	        0.0000000000	        0.0000000000	
        0.6572502922	        0.0001598948	       -0.0001028179	        0.0000081516	        0.0000000000	        0.0000000000	        0.0000000000	      -66.0805471498	      730.8970013763	       12.6107531259	        0.8873179104	        0.0000000000	       -0.0383546070	        0.0000000000	        0.0000000000	        0.0000000000	        0.0000000000	        0.0000000000	        0.0000000000	
        0.6680248871	        0.0029820033	       -0.0017335300	        0.0001974137	        0.0000000000	        0.0000000000	        0.0000000000	      -54.3014815102	      697.7547139694	       14.2446035076	        0.8911961808	        0.0000000000	       -0.0382898836	        0.0000000000	        0.0000000000	        0.0000000000	        0.0000000000	        0.0000000000	        0.0000000000	
        0.6787994821	       -0.0206905359	        0.0111517729	       -0.0015865067	        0.0000000000	        0.0000000000	        0.0000000000	      -45.1717919961	      669.2340272714	       16.2480587730	        0.8962001754	        0.0000000000	       -0.0382310669	        0.0000000000	        0.0000000000	        0.0000000000	        0.0000000000	        0.0000000000	        0.0000000000	
        0.6895740770	       -0.0187050197	        0.0095226216	       -0.0015935123	        0.0000000000	        0.0000000000	        0.0000000000	      -39.0078732536	      645.7539173179	       18.1155982501	        0.9018910728	        0.0000000000	       -0.0381689501	        0.0000000000	        0.0000000000	        0.0000000000	        0.0000000000	        0.0000000000	        0.0000000000	
